<svg width="32" height="31" viewBox="0 0 32 31" fill="none" xmlns="http://www.w3.org/2000/svg">
<path d="M30.7677 8.19322C29.9727 6.38126 28.8596 4.84503 27.4286 3.62392C25.9975 2.40282 24.2882 1.49684 22.3404 0.905981C20.3925 0.315123 18.246 0 15.9404 0C13.6348 0 11.4882 0.315123 9.54037 0.905981C7.59255 1.49684 5.88323 2.44221 4.49192 3.62392C3.10062 4.84503 1.98758 6.34187 1.19255 8.19322C0.397516 10.0052 0 12.1717 0 14.6533C0 17.0955 0.397516 19.2226 1.19255 21.0345C1.98758 22.8465 3.10062 24.3827 4.49192 25.6038C5.04845 26.0765 5.64472 26.5098 6.28074 26.9037L4.17391 30.6064L10.7329 28.7157C12.3627 29.1096 14.1118 29.3459 15.9801 29.3459C18.2857 29.3459 20.4323 29.0308 22.3801 28.4005C24.3279 27.7703 26.0373 26.8249 27.4683 25.6038C28.8994 24.3827 30.0124 22.8465 30.8075 21.0345C31.6025 19.2226 32 17.0955 32 14.6533C31.9602 12.1323 31.5627 10.0052 30.7677 8.19322ZM8.90435 16.7016C7.67205 16.7016 6.67826 15.7168 6.67826 14.4957C6.67826 13.2746 7.67205 12.2898 8.90435 12.2898C10.1366 12.2898 11.1304 13.2746 11.1304 14.4957C11.1304 15.7168 10.1366 16.7016 8.90435 16.7016ZM15.9801 16.7016C14.7478 16.7016 13.754 15.7168 13.754 14.4957C13.754 13.2746 14.7478 12.2898 15.9801 12.2898C17.2124 12.2898 18.2062 13.2746 18.2062 14.4957C18.2062 15.7168 17.2124 16.7016 15.9801 16.7016ZM23.0559 16.7016C21.8236 16.7016 20.8298 15.7168 20.8298 14.4957C20.8298 13.2746 21.8236 12.2898 23.0559 12.2898C24.2882 12.2898 25.282 13.2746 25.282 14.4957C25.3217 15.7168 24.2882 16.7016 23.0559 16.7016Z" fill="url(#paint0_linear_195_22171)"/>
<defs>
<linearGradient id="paint0_linear_195_22171" x1="32" y1="0" x2="1.42391" y2="31.9683" gradientUnits="userSpaceOnUse">
<stop stop-color="#D665FF"/>
<stop offset="1" stop-color="#4C6FFF"/>
</linearGradient>
</defs>
</svg>
