<svg width="32" height="32" viewBox="0 0 32 32" fill="none" xmlns="http://www.w3.org/2000/svg">
<path d="M10.7937 24.7085H6.89697V12.9851H10.7937V24.7085ZM8.84546 11.3843H8.82007C7.51245 11.3843 6.66675 10.4841 6.66675 9.35913C6.66675 8.20874 7.53833 7.3335 8.87134 7.3335C10.2043 7.3335 11.0247 8.20874 11.05 9.35913C11.05 10.4841 10.2043 11.3843 8.84546 11.3843ZM24.8445 24.7085H20.9482V18.4368C20.9482 16.8606 20.384 15.7856 18.9741 15.7856C17.8977 15.7856 17.2566 16.5107 16.9749 17.2107C16.8718 17.4612 16.8467 17.8113 16.8467 18.1616V24.7085H12.9502C12.9502 24.7085 13.0012 14.085 12.9502 12.9851H16.8467V14.645C17.3645 13.8462 18.291 12.71 20.3584 12.71C22.9221 12.71 24.8445 14.3855 24.8445 17.9863V24.7085Z" fill="#8F98B1"/>
</svg>
