<svg width="32" height="32" viewBox="0 0 32 32" fill="none" xmlns="http://www.w3.org/2000/svg">
<path d="M15.9999 8.89502C18.3142 8.89502 18.588 8.90397 19.5021 8.94559C20.347 8.98413 20.8059 9.12518 21.1114 9.24386C21.516 9.40108 21.8046 9.58892 22.1081 9.89201C22.4115 10.1954 22.5993 10.4841 22.7562 10.8886C22.8749 11.1941 23.016 11.6531 23.0545 12.498C23.0961 13.4117 23.1051 13.6859 23.1051 16.0002C23.1051 18.3144 23.0961 18.5883 23.0545 19.5023C23.016 20.3473 22.8749 20.8062 22.7562 21.1117C22.599 21.5162 22.4112 21.8049 22.1081 22.1083C21.8046 22.4117 21.516 22.5996 21.1114 22.7565C20.8059 22.8751 20.347 23.0162 19.5021 23.0547C18.5884 23.0964 18.3142 23.1053 15.9999 23.1053C13.6857 23.1053 13.4115 23.0964 12.4977 23.0547C11.6528 23.0162 11.1939 22.8751 10.8884 22.7565C10.4838 22.5992 10.1952 22.4114 9.89176 22.1083C9.58833 21.8049 9.4005 21.5162 9.24362 21.1117C9.12493 20.8062 8.98388 20.3473 8.94535 19.5023C8.90372 18.5886 8.89478 18.3144 8.89478 16.0002C8.89478 13.6859 8.90372 13.4121 8.94535 12.498C8.98388 11.6531 9.12493 11.1941 9.24362 10.8886C9.40084 10.4841 9.58868 10.1954 9.89176 9.89201C10.1952 9.58858 10.4838 9.40074 10.8884 9.24386C11.1939 9.12518 11.6528 8.98413 12.4977 8.94559C13.4118 8.90397 13.6857 8.89502 15.9999 8.89502ZM15.9999 7.3335C13.6461 7.3335 13.3509 7.34347 12.4265 7.38579C11.5042 7.42776 10.8743 7.57431 10.3228 7.78864C9.75278 8.01019 9.26942 8.3064 8.78779 8.78838C8.30615 9.27001 8.0096 9.75336 7.7884 10.3231C7.57407 10.8745 7.42751 11.5044 7.38554 12.4268C7.34323 13.3512 7.33325 13.6463 7.33325 16.0002C7.33325 18.354 7.34323 18.6491 7.38554 19.5735C7.42751 20.4959 7.57407 21.1258 7.7884 21.6773C8.00995 22.2473 8.30615 22.7307 8.78813 23.2123C9.27011 23.6943 9.75312 23.9905 10.3232 24.212C10.8743 24.4264 11.5045 24.5729 12.4269 24.6149C13.3513 24.6572 13.6464 24.6672 16.0003 24.6672C18.3541 24.6672 18.6493 24.6572 19.5736 24.6149C20.496 24.5729 21.1262 24.4264 21.6774 24.212C22.2474 23.9905 22.7308 23.6943 23.2124 23.2123C23.6944 22.7303 23.9906 22.2473 24.2121 21.6773C24.4265 21.1261 24.573 20.4959 24.615 19.5735C24.6573 18.6491 24.6673 18.354 24.6673 16.0002C24.6673 13.6463 24.6573 13.3512 24.615 12.4268C24.573 11.5044 24.4265 10.8742 24.2121 10.3231C23.9906 9.75302 23.6944 9.26967 23.2124 8.78803C22.7304 8.30605 22.2474 8.00985 21.6774 7.7883C21.1255 7.57431 20.4956 7.42776 19.5733 7.38579C18.6489 7.34347 18.3537 7.3335 15.9999 7.3335Z" fill="#8F98B1"/>
<path d="M16 11.5498C13.5419 11.5498 11.5497 13.5424 11.5497 16.0001C11.5497 18.4578 13.5423 20.4504 16 20.4504C18.4577 20.4504 20.4503 18.4578 20.4503 16.0001C20.4503 13.5424 18.458 11.5498 16 11.5498ZM16 18.8889C14.4044 18.8889 13.1112 17.5953 13.1112 16.0001C13.1112 14.4045 14.4047 13.1113 16 13.1113C17.5952 13.1113 18.8888 14.4049 18.8888 16.0001C18.8888 17.5957 17.5956 18.8889 16 18.8889Z" fill="#8F98B1"/>
<path d="M20.6265 12.4135C21.2009 12.4135 21.6665 11.9479 21.6665 11.3735C21.6665 10.7991 21.2009 10.3335 20.6265 10.3335C20.0522 10.3335 19.5865 10.7991 19.5865 11.3735C19.5865 11.9479 20.0522 12.4135 20.6265 12.4135Z" fill="#8F98B1"/>
</svg>
