<svg width="32" height="32" viewBox="0 0 32 32" fill="none" xmlns="http://www.w3.org/2000/svg">
<path d="M23.9719 13.1418C23.979 13.2993 23.9824 13.4575 23.9824 13.6165C23.9824 18.4692 20.2886 24.0652 13.5334 24.0654C11.4595 24.0654 9.52954 23.4575 7.9043 22.4158C8.19165 22.4497 8.48413 22.4666 8.78027 22.4666C10.501 22.4666 12.0845 21.8796 13.3416 20.8945C11.7339 20.8647 10.3784 19.803 9.91064 18.3438C10.1345 18.3867 10.3647 18.4102 10.6008 18.4102C10.936 18.4102 11.2607 18.365 11.5693 18.2808C9.88892 17.9443 8.62305 16.4592 8.62305 14.6809C8.62305 14.6643 8.62305 14.6494 8.62354 14.634C9.11841 14.9092 9.68433 15.0747 10.2869 15.0933C9.30078 14.4353 8.65259 13.3105 8.65259 12.0364C8.65259 11.3635 8.83447 10.7332 9.1499 10.1904C10.9609 12.4126 13.6675 13.874 16.7197 14.0276C16.6567 13.7585 16.6243 13.4783 16.6243 13.1902C16.6243 11.1628 18.269 9.51807 20.2971 9.51807C21.3535 9.51807 22.3076 9.9646 22.9778 10.6785C23.8145 10.5134 24.6001 10.2078 25.3098 9.78711C25.0352 10.6443 24.4531 11.3635 23.6948 11.8184C24.4377 11.7295 25.1458 11.5325 25.8037 11.24C25.3123 11.9766 24.689 12.6235 23.9719 13.1418Z" fill="#8F98B1"/>
</svg>
